<?xml version="1.0" encoding="UTF-8" standalone="no"?>
<!-- Created with Inkscape (http://www.inkscape.org/) -->

<svg
   width="48"
   height="48"
   viewBox="0 0 48 48"
   version="1.1"
   id="svg1"
   xml:space="preserve"
   sodipodi:docname="bloctopus.svg"
   inkscape:version="1.4.2 (ebf0e94, 2025-05-08)"
   xmlns:inkscape="http://www.inkscape.org/namespaces/inkscape"
   xmlns:sodipodi="http://sodipodi.sourceforge.net/DTD/sodipodi-0.dtd"
   xmlns="http://www.w3.org/2000/svg"
   xmlns:svg="http://www.w3.org/2000/svg"
   xmlns:rdf="http://www.w3.org/1999/02/22-rdf-syntax-ns#"
   xmlns:cc="http://creativecommons.org/ns#"
   xmlns:dc="http://purl.org/dc/elements/1.1/"><sodipodi:namedview
     id="namedview1"
     pagecolor="#505050"
     bordercolor="#eeeeee"
     borderopacity="1"
     inkscape:showpageshadow="0"
     inkscape:pageopacity="0"
     inkscape:pagecheckerboard="0"
     inkscape:deskcolor="#505050"
     inkscape:zoom="11.0625"
     inkscape:cx="24"
     inkscape:cy="24"
     inkscape:window-width="1366"
     inkscape:window-height="740"
     inkscape:window-x="0"
     inkscape:window-y="0"
     inkscape:window-maximized="1"
     inkscape:current-layer="svg1" /><title
     id="title53">Bloctopus</title><defs
     id="defs1" /><g
     id="g46"
     style="fill:#000000;stroke:#ffffff;stroke-width:3;stroke-dasharray:none"
     transform="translate(6.254883,0.00488292)"><path
       d="m 0.765625,15.826172 v 16.175781 a 1.5346247,1.5346247 37.499472 0 0 1.9318421,1.482326 l 8.3669859,-2.242092 v -9.46875 A 3.464461,3.464461 60.002574 0 0 9.3324921,18.773281 L 2.4975859,14.826328 A 1.1545807,1.1545807 150.00257 0 0 0.765625,15.826172 Z"
       style="display:inline;fill:#000000;fill-rule:evenodd;stroke:#ffffff;stroke-width:3;stroke-linecap:round;stroke-linejoin:round;stroke-dasharray:none;paint-order:stroke fill markers"
       id="path46" /><path
       d="m 11.064453,32.828125 -7.148258,1.915838 a 0.82847948,0.82847948 97.497781 0 0 -0.1997528,1.517728 l 5.6159436,3.242243 a 1.1547224,1.1547224 149.99953 0 0 1.7320672,-1.000028 z"
       style="display:inline;fill:#000000;fill-rule:evenodd;stroke:#ffffff;stroke-width:3;stroke-linecap:round;stroke-linejoin:round;stroke-dasharray:none;paint-order:stroke fill markers"
       id="path45" /><path
       d="m 21.618936,30.000084 -9.023233,2.417885 v 6.414062 a 1.5346075,1.5346075 37.499162 0 0 1.931837,1.482305 l 17.046482,-4.568125 a 0.82833138,0.82833138 97.495983 0 0 0.199675,-1.517503 L 25.282943,30.48223 a 4.829102,4.829102 7.4964726 0 0 -3.664007,-0.482146 z"
       style="display:inline;fill:#000000;fill-rule:evenodd;stroke:#ffffff;stroke-width:3;stroke-linecap:round;stroke-linejoin:round;stroke-dasharray:none;paint-order:stroke fill markers"
       id="path44" /><path
       d="m 22.894531,17.158203 -8.366986,2.242092 a 2.6065005,2.6065005 127.49947 0 0 -1.931842,2.517674 v 8.914062 l 8.366986,-2.242091 a 2.6065002,2.6065002 127.49947 0 0 1.931842,-2.517674 z"
       style="display:inline;fill:#000000;fill-rule:evenodd;stroke:#ffffff;stroke-width:3;stroke-linecap:round;stroke-linejoin:round;stroke-dasharray:none;paint-order:stroke fill markers"
       id="path43" /><path
       d="m 32.792767,14.505955 -8.366986,2.242092 v 9.46875 a 3.464461,3.464461 60.002574 0 0 1.731961,3.000156 l 6.834906,3.946953 a 1.1545807,1.1545807 150.00257 0 0 1.731961,-0.999844 V 15.988281 a 1.5346247,1.5346247 37.499472 0 0 -1.931842,-1.482326 z"
       style="display:inline;fill:#000000;fill-rule:evenodd;stroke:#ffffff;stroke-width:3;stroke-linecap:round;stroke-linejoin:round;stroke-dasharray:none;paint-order:stroke fill markers"
       id="path42" /><path
       d="M 20.962695,7.6758978 3.9162115,12.244024 a 0.82833134,0.82833134 97.495979 0 0 -0.1996746,1.517503 l 6.4907541,3.746477 a 4.8291031,4.8291031 7.4964728 0 0 3.664007,0.482147 l 9.023233,-2.417885 V 9.1582031 A 1.5346074,1.5346074 37.499161 0 0 20.962695,7.6758978 Z"
       style="display:inline;fill:#000000;fill-rule:evenodd;stroke:#ffffff;stroke-width:3;stroke-linecap:round;stroke-linejoin:round;stroke-dasharray:none;paint-order:stroke fill markers"
       id="path41" /><path
       d="m 24.425781,9.4863281 0,5.6757809 7.148258,-1.915837 a 0.82847944,0.82847944 97.497786 0 0 0.199753,-1.517728 L 26.157848,8.4862998 a 1.1547223,1.1547223 149.99953 0 0 -1.732067,1.0000283 z"
       style="display:inline;fill:#000000;fill-rule:evenodd;stroke:#ffffff;stroke-width:3;stroke-linecap:round;stroke-linejoin:round;stroke-dasharray:none;paint-order:stroke fill markers"
       id="path40" /></g><metadata
     id="metadata53"><rdf:RDF><cc:Work
         rdf:about=""><dc:title>Bloctopus</dc:title><dc:date>2025-07-10</dc:date><dc:creator><cc:Agent><dc:title>V0xa1tor</dc:title></cc:Agent></dc:creator></cc:Work></rdf:RDF></metadata></svg>
